/* XPM */
static char *aa59e750fae7406ff48f2e75a956d07adTjEofLo6QxmFW8D[] = {
/* columns rows colors chars-per-pixel */
"60 60 10 1 ",
"  c #3D8F45",
". c #3D8F47",
"X c #3E8F4A",
"o c #3E9044",
"O c #3E9046",
"+ c #3F9147",
"@ c #3E9048",
"# c #3F9149",
"$ c #3F904B",
"% c #40924A",
/* pixels */
"++@@++ @@@@@+ @@@@@@++ +@@$$@@@@@@+ @@@@@@@@+ @@@@+ @@@@@@@@",
"  @@+ @@@@@@ +@@@@@@+ + @@$$@@@@@@ +@@@@@@@@ +@@@@ +@@@@@@@@",
"@@@@+ @@XX@@+ @@@@@+ ++ + @@@@@@@@+ @@@@+ + + @@@@+ + @@OO@O",
"@@@@ +@@@@@@ +@@@ +++ ++ +@@@@@@@@ +@@@@ + + +@@@@ + +@@OOOO",
"@@@@+ @@@@@@ +@@+ @@@++ @@@ @++@@@@@@@@@+ + + @@@ @@+ + @OOo",
"@@@@ +@@ +@@++@@ +@@ + +@@@+@+@@@@@@@@@@ + + +@@@+@@ + +OOOO",
"@+@@@@@@@@@@ +@@@@@@+ @@@@+ @@@@@@@@+@@@+ + + @@@@+ @@@@OOOO",
" +@@@@@@@@@ + @@@@@@ +@@@@++@@@@@@@@+@@@ + + +@@@@ +@@@@OOO+",
"@@++ +X+@@@@@@@@@@@@++@@.@@@++ @+ +@@@@@ +o + @@++ @@@@@@@@@",
"@@+  ++X@@@@@@@@@@@@ @@@@@@@+ @@ +@@@@@@+ ++ +@@+ @@@@@#@@@@",
"+  @@@@@ +@@+ + +@@@+ @@++@@+ @+++@@@@@@ ++ @@@@@@+ @@++#@@#",
"@+@@%@@@+++@ ++ ++@ ++@@@+@@++ ++@@@@@@@@  +@@ +@@ +@++@@@@#",
"@@ + @@@ ++ +  + @@@+ @@+ +  @+ ++@@@@@@@@+ + + @@++ +$@@+@@",
"@@+%@@@@ + + +++.@@@ +@@++ +@@ + +@@@@@@@@ + + +@@++ +@@+@++",
"++ @@@@@++X@@@@@++@@@@@@ @+ @@+@@@@@@+@@+ @@+ @@@++@+@@@+@++",
"+ @@@@@@ X+@@@@@+@@@@@@@@@+@@ ++@@@@ +@@ +@@++@@@@@@ @@@@@@+",
"@@@@O+@@@@@@@@OO@@@@+++ ++@@+@@@+++@@@@@+ @@++@@@@ +++@@@@+@",
"@@@@O@@@@@@@@OOO@@@@@@++@ @@ +@@@@@@@@@  +@@@@@@@ + +@@@@++@",
"@@@@@@@@O@@@@+O@ +@@@@@@+ @@+ @@@@@@@@+++ + @@@@+  ++@@@@@@@",
"@@@@@@@@O+@OOO@@++@@@@@@ +@@ +@@@@@@@@+  + +@@@@ +++@@@@@@@@",
"@@@@@@$@OOO@OOO@ ++@+ @@++@@@@++@@@@ +@@@@@@@@@@+ + @@@@+ @@",
"@@@@@@@@OO@@O+O@@ @@ +@@+@@@@@+ @@@@+ +@@@@@@@@@ + +@@@@ +@@",
"@@@$@@@OOOOO++#@@@@@@@@@+ @@@@@@@@@@.++ + + @++@+ + @@@@ +@@",
"+@@$@@@OOOOO+@@#X@@@@@@@++@@@@@@@@@@@  + + +@+ @ +@@@@@@++@@",
"@@@@@@OOO@@@@@@#@@@@+@@@ @$@@+@+@@+ + + @@@@++@@@@@@XX@@+++@",
"@@@O@@@O@@@@@@#@@@@@+@@$@@@@++@@@@ + +@@@@@@ @@@@@@@XX@@+@ @",
"@@+O++@@OOOO$@@@@+@@OO@@@@$@OO@@+ @@@@+ @++ @@+ @@@@@@@@@@@@",
"@@+O+@@@OOOO@@@@++@OOO@@@@@@@OO@ +@@@@ + ++@@@ +@@@@@@@@@@@@",
"@@@@+OOO@@@@@@@@O@@@@@@@++@@@@@@@@+ + @@@@+ @@@@@@@@@@@@+++@",
"@@@@OOOO@@@@@@@@@@@@@O@@O++@@@@@@@ + +@@@@ +@@@@@@@@@@@@@@@@",
"@@@.@OO+OO@@@@@@O+@@@+@@OO@@@+@@@@@@+ + @@@@+ @@@@@@@@@@@@@@",
"@@@@@OOOOO@@@@@OO@@@OO@@@@@@@@@@@@@@ + +@@@@ +@@@@@@@@@@@@@@",
"@OO@@@@@@@@@OO@@@@@@+ + + @@@@++.@@@@@@@@+@@+ @@@@@@+ + + + ",
"++@@@@@@@@@@OO@@ +@@ + + +@@@@.@@@@@@@@@ +@@ +@@@@@@ + + + +",
"@@@@@@OOOO@@OOOO++@@+ @++ @@+ @@@@@@XX@@+ @@+ @@@@@@@@@@@@@@",
"@@@@@@OOOO@@OOOO@@@@@+@@ +@@ +@@@@@@$@@@ +@@ +@@@@@@@@@@@@@@",
"@++++O@@@@OO@@@@@@@@@@@@@@+ + @@@@@@@@@@@@@@@@@@@@+  +@@+ + ",
"++@@@@@@@@@OO@@@@@@@@@@@@@ + +@@+@@@@@@@@@@@@@@@@@ ++@@@.+ +",
"O@@@@@@@.@@OOO@@ @@@@+@@@@@@+ @@++ @@@@@@@@@@@@@+ @@.@X@@@@@",
"@@@@@@@@@@@@OO@@+@@ + @@@@@@ ++ + @@@@@@@@@@@@@@ +@@@@@$@@@@",
"+ @@@@@@@+@@+ @@@@@@@+@@@@+ +  +++@@@@@@@@ @@@@@@@OO@@@@#@@@",
" +@@@@@@+ @@ +@@@@@@++@@@@ + ++ +@@@@@@@@@+X@@@@@OOO@@@@@@@@",
"+ ++@@@@ +.@@@@@++@@++ @@@+ +  ++ @@@@@@@@++@@@@OOOOOO@@@+@@",
" ++@@@@@+ @@@@@@ +@@ +@@@@@+ ++  +@@@@@@@@ +@@@@OOO+OO@@++@@",
"++ @@@@@@@+ + + @@@@@@@@@@+++ +++@@@@@@@++@@@ + @+@@OO@@+OOO",
"+ @@@@@@@@ + + +@@@@@@@@@@+ +@+  @@@@@@@ @@@++++OO@@OO@@+OOO",
"@@+ @@@@+ @@@@@@@@@@@@+@@@ @+ @@@@@@@@@@+ @@@@ @@@OOOOOO@OOO",
"@@@@@@@@ +@@@@@@@@@@@@ +@@@@ +@@@@@@@@@@ +@@@@@@@@OOOOOO@OOO",
"@@@@@@@@OOO@OO@@@+OOOO+O@@+ + @@@@@@@@@@@@+ + @@@@+ + @@+++@",
"@@$$@@@@OO@@OO@@++++OOOO@@ + +@@@@@@@@@@@@ + +@@@@ + +@@+@@@",
"@@@@@@@@+O@@OO@@OO O@@@@+ @@@@@@@@@@@@@@@@@@@@+ + @@@@@@@@@@",
"@@@@@@@@++@@OO@@OOOO@@@@ +@@@@@@@@@@@@@@@@@@@@ + +@@@@@@@@@@",
"#@@@@@@@+++@@@@@@@@@@@@@+ @@@@+ @@@@@@@@@@@@@@@@+ @@@@@@@@@@",
"@@@$@@@@@@@@@@@@@O@@@@@@ +@@@@ +@@@@@@@@@@@@@@@@ +@@@@@@++@@",
"@+@@@@@@@@@@@@@@@@@@O+@@+ + + + @@+ @@@@+ @@@@@@@@@@@@@@++#@",
"++@@@@@@@@@@@@@@@@@@O+@@ + + + +@@+@@@@@ +@@@@@@@@@@@@@@###@",
"++OOOOO@OO@@@@@@@@.@ +.@@@@@+ @@+ @@+ @@+ @@@@+ @@@@+ @@@@@@",
"++OOOO@@OO@@@@@@@@X@+ @@@@@@ +@@ +@@ +@@ +@@@@ +@@@@ +@@@@$@",
"@OOOO+++@@@@@@@@@@@@ +@@+ @@+ +  ++++  ++ + + @@++@@+ @ @@@@",
"+O@@O+++@@@@@@@@@@@@+@@@ +@@ + ++ + + +  + +++@@+@@@ +@+@@@@"
};
